<svg width="22" height="26" viewBox="0 0 22 26" fill="none" xmlns="http://www.w3.org/2000/svg">
<path d="M18.6283 7.20997L2.09667 1.69831C1.59667 1.53164 1.34667 1.44831 1.17333 1.57331C1 1.69831 1 1.96164 1 2.48997V14.6666L18.6283 8.78997C19.6083 8.46331 20.0983 8.29997 20.0983 7.99997C20.0983 7.69997 19.6083 7.53664 18.6283 7.20997Z" fill="#E23838"/>
<path d="M1 14.6666V2.48997C1 1.96164 1 1.69831 1.17333 1.57331C1.34667 1.44831 1.59667 1.53164 2.09667 1.69831L18.6283 7.20997C19.6083 7.53664 20.0983 7.69997 20.0983 7.99997C20.0983 8.29997 19.6083 8.46331 18.6283 8.78998L1 14.6666ZM1 14.6666V24.6666" stroke="#E23838" stroke-width="2" stroke-linecap="round"/>
</svg>
